<?xml version="1.0" encoding="UTF-8"?>
<svg version="1.1" xmlns="http://www.w3.org/2000/svg" width="512" height="512">
<path d="M0 0 C19.40410556 16.69655595 32.31296869 40.40269184 35.45703125 65.91796875 C36.99260085 97.53014757 30.12909769 124.45713129 9.45703125 148.91796875 C7.82564384 150.62693419 6.15520677 152.27418319 4.45703125 153.91796875 C4.72966797 154.70107422 4.72966797 154.70107422 5.0078125 155.5 C6.49646071 159.85906732 7.88218976 164.23775122 9.14453125 168.66796875 C9.39589844 169.5496875 9.64726562 170.43140625 9.90625 171.33984375 C10.46298211 173.94582382 10.55734724 176.26198338 10.45703125 178.91796875 C11.55015625 178.83546875 12.64328125 178.75296875 13.76953125 178.66796875 C22.81387997 178.69992758 31.67275023 183.140147 38.45703125 188.91796875 C46.6096557 197.17213834 50.84117875 206.50753783 51.484375 218.1015625 C51.37271672 229.60236549 47.59880583 237.76447509 41.26953125 247.16796875 C30.74975492 257.45397227 19.26192745 260.38370422 4.94607544 260.29891968 C3.72093227 260.30359965 2.49578911 260.30827962 1.23352039 260.31310141 C-2.14136998 260.32294728 -5.51575444 260.31947156 -8.89061332 260.31014276 C-12.54034336 260.30332521 -16.19003077 260.31384693 -19.8397522 260.32208252 C-26.97993071 260.33539412 -34.12001439 260.33255339 -41.26019655 260.3238446 C-47.06649924 260.31705724 -52.87277544 260.31615588 -58.67908096 260.31941605 C-59.50686976 260.31987575 -60.33465856 260.32033544 -61.18753187 260.32080907 C-62.86942776 260.3217683 -64.55132364 260.32274094 -66.23321952 260.32372685 C-81.99019251 260.33227348 -97.74711306 260.32245858 -113.50407745 260.30632575 C-127.0071391 260.2929282 -140.51012335 260.29524742 -154.01318359 260.30908203 C-169.71237655 260.32515928 -185.41152357 260.33144435 -201.11072361 260.32224524 C-202.78689074 260.32128965 -204.46305787 260.32034653 -206.13922501 260.31941605 C-206.96381966 260.31895322 -207.78841432 260.31849039 -208.6379967 260.31801354 C-214.43237034 260.31542971 -220.22671472 260.31978163 -226.02108383 260.32685471 C-233.08976681 260.33529399 -240.15834993 260.33293895 -247.22702156 260.31701247 C-250.82955756 260.30916151 -254.43192744 260.3059834 -258.03446198 260.31595993 C-261.94908254 260.32663621 -265.86343477 260.31383527 -269.77804565 260.29891968 C-270.90355485 260.30561184 -272.02906404 260.31230401 -273.18867958 260.31919897 C-288.99764873 260.20282347 -303.00847979 255.08412031 -314.55078125 244.0703125 C-325.31361691 232.44222926 -331.23729566 217.53304849 -330.78515625 201.6328125 C-329.38288486 185.91380256 -323.44949695 171.54811712 -311.54296875 160.91796875 C-302.4887779 153.97415321 -290.91556987 147.65741619 -279.23046875 147.85546875 C-277.40515625 147.88640625 -277.40515625 147.88640625 -275.54296875 147.91796875 C-275.50429688 146.87962891 -275.50429688 146.87962891 -275.46484375 145.8203125 C-273.96053268 119.87094653 -261.61412575 97.04219816 -243.54296875 78.91796875 C-242.86105469 78.21285156 -242.17914063 77.50773437 -241.4765625 76.78125 C-221.26990097 57.28636911 -194.75036231 50.7591355 -167.54296875 49.91796875 C-167.42115234 48.71720703 -167.42115234 48.71720703 -167.296875 47.4921875 C-166.32418414 42.88072567 -164.51218394 38.9647479 -162.48046875 34.73046875 C-161.87428711 33.46408569 -161.87428711 33.46408569 -161.25585938 32.17211914 C-157.99642183 25.53018626 -154.3118361 19.59650444 -149.54296875 13.91796875 C-148.46208984 12.63019531 -148.46208984 12.63019531 -147.359375 11.31640625 C-109.15978253 -32.5105092 -44.39924523 -36.35145577 0 0 Z " fill="#1AB4EC" transform="translate(371.54296875,170.08203125)"/>
<path d="M0 0 C19.40410556 16.69655595 32.31296869 40.40269184 35.45703125 65.91796875 C36.98050844 97.28120586 30.27417902 124.77539802 9.45703125 148.91796875 C7.20462983 151.12227619 4.96887507 153.00678324 2.45703125 154.91796875 C1.90015625 154.07234375 1.34328125 153.22671875 0.76953125 152.35546875 C-11.29828126 134.28710122 -26.23896229 123.4863345 -47.66796875 118.60546875 C-56.16221585 117.23460232 -64.96858788 117.76680435 -73.54296875 117.91796875 C-74.01605469 116.91378906 -74.48914063 115.90960938 -74.9765625 114.875 C-87.17171921 89.45983098 -105.69924697 68.4205184 -132.61328125 58.31640625 C-136.21864782 57.05060281 -139.86716168 55.96188026 -143.54296875 54.91796875 C-144.25324219 54.69625 -144.96351563 54.47453125 -145.6953125 54.24609375 C-152.74555866 52.2096988 -160.27648749 51.746912 -167.54296875 50.91796875 C-167.03196563 44.85082055 -165.12426432 40.12107022 -162.48046875 34.66796875 C-162.07634766 33.8282251 -161.67222656 32.98848145 -161.25585938 32.12329102 C-157.99141462 25.50691541 -154.29801151 19.58004278 -149.54296875 13.91796875 C-148.82238281 13.05945313 -148.10179687 12.2009375 -147.359375 11.31640625 C-109.15978253 -32.5105092 -44.39924523 -36.35145577 0 0 Z " fill="#FEC106" transform="translate(371.54296875,170.08203125)"/>
<path d="M0 0 C2.75569447 2.18159145 4.43588747 3.87177494 6 7 C6.26752525 10.59821462 6.23158496 14.2054541 6.25 17.8125 C6.270625 18.81087891 6.29125 19.80925781 6.3125 20.83789062 C6.36145437 30.02295399 6.36145437 30.02295399 3 34 C0.03676151 36.53991871 -2.17759462 37.2568596 -6 37.0625 C-9.18187034 36.81231261 -10.24172254 35.7916185 -12.71875 33.65625 C-16.24759361 29.12680062 -15.65200449 23.92693474 -15.5 18.4375 C-15.50257813 17.40947266 -15.50515625 16.38144531 -15.5078125 15.32226562 C-15.38574537 5.90478652 -15.38574537 5.90478652 -12 2 C-7.99745384 -0.66836411 -4.70686701 -0.8340238 0 0 Z " fill="#FFC105" transform="translate(308,82)"/>
<path d="M0 0 C1.97245007 1.06291341 3.86505369 2.2030932 5.7590332 3.39990234 C6.72776367 3.97417969 6.72776367 3.97417969 7.71606445 4.56005859 C11.59297044 6.94033558 14.48585291 9.26808652 17.0090332 13.14990234 C17.49463822 17.03474247 17.35051404 19.38157046 15.7590332 22.96240234 C13.85081671 25.34767296 12.91555289 26.26179911 10.0090332 27.14990234 C3.68284225 27.77383379 0.07142575 26.0449084 -5.1784668 22.89990234 C-5.87649414 22.50416016 -6.57452148 22.10841797 -7.29370117 21.70068359 C-16.10430431 16.58701288 -16.10430431 16.58701288 -17.70581055 12.18505859 C-18.09580295 8.72986276 -18.18057281 6.62391738 -16.8659668 3.33740234 C-12.01186486 -2.32571658 -6.74363632 -2.87937973 0 0 Z " fill="#FFC105" transform="translate(174.990966796875,161.85009765625)"/>
<path d="M0 0 C1.39039981 0.79188334 2.77189634 1.59958291 4.14453125 2.421875 C4.84255859 2.81761719 5.54058594 3.21335937 6.25976562 3.62109375 C15.32036026 8.87985943 15.32036026 8.87985943 16.89453125 14.546875 C16.96720043 18.76168769 16.32135972 20.70419324 13.95703125 24.171875 C11.37835519 26.26269343 9.64422971 27.07562582 6.36328125 27.53515625 C1.49666181 27.01612459 -2.02613932 24.88831032 -6.23046875 22.484375 C-7.03677734 22.04931641 -7.84308594 21.61425781 -8.67382812 21.16601562 C-12.96828047 18.7564102 -16.10908067 16.91727908 -18.04296875 12.171875 C-18.57552194 7.20137857 -18.19591625 4.11305938 -15.04296875 0.171875 C-10.45628774 -3.26813575 -4.85523434 -2.49157834 0 0 Z " fill="#FFC105" transform="translate(433.04296875,310.828125)"/>
<path d="M0 0 C2.8100346 1.79363911 4.50940468 3.01880935 6 6 C6.61032536 12.713579 5.20247736 16.55720033 1.75 22.25 C1.35425781 22.94351563 0.95851563 23.63703125 0.55078125 24.3515625 C-4.62394677 33.20798226 -4.62394677 33.20798226 -9.8125 34.9375 C-13.99763909 35.01956155 -16.39261328 34.10998091 -20 32 C-22.40543462 28.6925274 -23.0460647 26.86371312 -22.828125 22.77734375 C-21.85034034 18.31735431 -20.14322249 15.15017555 -17.75 11.3125 C-17.36714844 10.66216797 -16.98429687 10.01183594 -16.58984375 9.34179688 C-12.49159502 2.61875005 -8.23559674 -1.69703206 0 0 Z " fill="#FFC105" transform="translate(386,103)"/>
<path d="M0 0 C1.14146484 -0.03738281 2.28292969 -0.07476562 3.45898438 -0.11328125 C11.8703268 -0.20176995 11.8703268 -0.20176995 15.9140625 2.65234375 C18.31458731 6.33773096 19.1160064 8.9956646 18.6875 13.375 C16.97273229 17.07889825 15.83185508 18.87359852 12.06640625 20.5234375 C8.01385572 21.54477394 4.34595183 21.66885011 0.1875 21.625 C-0.54597656 21.63273437 -1.27945312 21.64046875 -2.03515625 21.6484375 C-7.64000411 21.62838438 -12.35404841 21.12729879 -16.6875 17.25 C-18.80437325 13.50476271 -19.18030374 10.58640048 -18.3125 6.375 C-13.56388962 -1.06448959 -8.13863642 0.10008385 0 0 Z " fill="#FFC105" transform="translate(452.3125,238.625)"/>
<path d="M0 0 C3.24962741 2.4725426 4.71720978 4.09507129 5.9375 8 C6.01061361 11.50945328 5.86862312 13.01020301 4 16 C-2.12036411 21.73003477 -10.53766672 27.35224194 -18.875 28.5625 C-23.02772124 27.81501018 -25.74615167 26.67179778 -28.3125 23.25 C-29.32815881 19.9260257 -29.41796486 17.46313738 -29 14 C-25.5832336 9.14729425 -22.06400688 6.45679104 -16.875 3.6875 C-16.25496094 3.34138672 -15.63492187 2.99527344 -14.99609375 2.63867188 C-9.47539196 -0.40661847 -6.24583725 -1.50761589 0 0 Z " fill="#FFC105" transform="translate(444,161)"/>
<path d="M0 0 C7.27185588 5.11688031 12.67276403 13.25117218 14.68359375 21.9609375 C14.8938384 26.20405675 14.32690633 28.45515611 12.125 32.125 C8.36889395 34.37866363 5.80409853 34.59681096 1.5 34.6640625 C-3.75868527 33.26722423 -6.58331311 28.49292921 -9.28613281 24.03881836 C-15.14175327 13.83326862 -15.14175327 13.83326862 -14.5390625 7.83984375 C-13.67733505 4.8987305 -12.20485944 3.07516183 -10 1 C-6.81929763 -0.59035119 -3.41669549 -0.78937448 0 0 Z " fill="#FFC105" transform="translate(229,103)"/>
</svg>
